grf
version=1
nRows=12
nColumns=37
inDegrees=no
endheader
time	ground_force_1_vx	ground_force_1_vy	ground_force_1_vz	ground_force_1_px	ground_force_1_py	ground_force_1_pz	ground_moment_1_mx	ground_moment_1_my	ground_moment_1_mz	ground_force_2_vx	ground_force_2_vy	ground_force_2_vz	ground_force_2_px	ground_force_2_py	ground_force_2_pz	ground_moment_2_mx	ground_moment_2_my	ground_moment_2_mz	ground_force_3_vx	ground_force_3_vy	ground_force_3_vz	ground_force_3_px	ground_force_3_py	ground_force_3_pz	ground_moment_3_mx	ground_moment_3_my	ground_moment_3_mz	ground_force_4_vx	ground_force_4_vy	ground_force_4_vz	ground_force_4_px	ground_force_4_py	ground_force_4_pz	ground_moment_4_mx	ground_moment_4_my	ground_moment_4_mz
      0.00000000	      0.00000000	     -0.00000000	      0.00000000	      0.00000000	      0.00000000	      0.00000000	      0.00000000	      0.00000000	      0.00000000	      0.49233192	     33.95868683	   -583.67987061	   -317.22683870	  -1035.06705043	      0.00000000	      0.00000000	      0.00000000	   1971.61610795	      2.61910251	    -15.95394920	   -334.26568604	   -338.09382293	   -745.55493733	      0.00000000	      0.00000000	      0.00000000	  -1458.89949913	      0.00000000	     -0.00000000	      0.00000000	      0.00000000	      0.00000000	      0.00000000	      0.00000000	      0.00000000	      0.00000000
      0.01000000	      0.00000000	     -0.00000000	      0.00000000	      0.00000000	      0.00000000	      0.00000000	      0.00000000	      0.00000000	      0.00000000	      1.17678440	     33.18796539	   -578.38409424	   -317.71281684	  -1034.96955207	      0.00000000	      0.00000000	      0.00000000	   1980.64145637	      3.22197627	    -16.53028707	   -341.35855103	   -335.23596426	   -746.09658293	      0.00000000	      0.00000000	      0.00000000	  -1508.71995006	      0.00000000	     -0.00000000	      0.00000000	      0.00000000	      0.00000000	      0.00000000	      0.00000000	      0.00000000	      0.00000000
      0.02000000	      0.00000000	     -0.00000000	      0.00000000	      0.00000000	      0.00000000	      0.00000000	      0.00000000	      0.00000000	      0.00000000	      1.69499969	     32.69630051	   -571.97143555	   -317.98435117	  -1034.19148368	      0.00000000	      0.00000000	      0.00000000	   2081.53113173	      2.95882332	    -17.78120448	   -348.45330811	   -332.63833759	   -744.50925901	      0.00000000	      0.00000000	     -0.00000000	  -1596.78624052	      0.00000000	     -0.00000000	      0.00000000	      0.00000000	      0.00000000	      0.00000000	      0.00000000	      0.00000000	      0.00000000
      0.03000000	      0.00000000	     -0.00000000	      0.00000000	      0.00000000	      0.00000000	      0.00000000	      0.00000000	      0.00000000	      0.00000000	      2.02141857	     32.53260040	   -568.85247803	   -318.26106581	  -1034.62766367	      0.00000000	     -0.00000000	      0.00000000	   2068.65897864	      2.97279260	    -19.37123706	   -351.30343628	   -331.37551833	   -744.50408173	      0.00000000	      0.00000000	     -0.00000000	  -1882.70446082	      0.00000000	     -0.00000000	      0.00000000	      0.00000000	      0.00000000	      0.00000000	      0.00000000	      0.00000000	      0.00000000
      0.04000000	      0.00000000	     -0.00000000	      0.00000000	      0.00000000	      0.00000000	      0.00000000	      0.00000000	      0.00000000	      0.00000000	      2.48309374	     32.69566345	   -563.79235840	   -318.83732665	  -1034.38457108	      0.00000000	      0.00000000	      0.00000000	   2178.74050446	      3.07440714	    -21.37384823	   -352.58581543	   -329.75695751	   -743.84484000	      0.00000000	     -0.00000000	     -0.00000000	  -1760.04790760	      0.00000000	     -0.00000000	      0.00000000	      0.00000000	      0.00000000	      0.00000000	      0.00000000	      0.00000000	      0.00000000
      0.05000000	      0.00000000	     -0.00000000	      0.00000000	      0.00000000	      0.00000000	      0.00000000	      0.00000000	      0.00000000	      0.00000000	      2.00789785	     32.90404892	   -559.55535889	   -318.65045826	  -1033.99500499	      0.00000000	      0.00000000	      0.00000000	   2012.21585155	      3.25289474	    -23.39010839	   -352.70098877	   -328.59327746	   -744.09565197	      0.00000000	      0.00000000	     -0.00000000	  -1901.15047424	      0.00000000	     -0.00000000	      0.00000000	      0.00000000	      0.00000000	      0.00000000	      0.00000000	      0.00000000	      0.00000000
      0.06000000	      0.00000000	     -0.00000000	      0.00000000	      0.00000000	      0.00000000	      0.00000000	      0.00000000	      0.00000000	      0.00000000	      1.39841485	     33.42625427	   -558.49218750	   -318.34706835	  -1035.55212836	      0.00000000	      0.00000000	      0.00000000	   1988.08801579	      3.07545587	    -24.93623188	   -352.52737427	   -328.91113649	   -742.92215235	      0.00000000	     -0.00000000	     -0.00000000	  -1808.96705763	      0.00000000	     -0.00000000	      0.00000000	      0.00000000	      0.00000000	      0.00000000	      0.00000000	      0.00000000	      0.00000000
      0.07000000	      0.00000000	     -0.00000000	      0.00000000	      0.00000000	      0.00000000	      0.00000000	      0.00000000	      0.00000000	      0.00000000	      1.04015315	     33.67612076	   -554.78558350	   -318.74103820	  -1034.39277331	      0.00000000	      0.00000000	      0.00000000	   2118.64407674	      3.35606323	    -26.05489760	   -353.22378540	   -328.17824339	   -741.39850202	      0.00000000	      0.00000000	     -0.00000000	  -1874.67888249	      0.00000000	     -0.00000000	      0.00000000	      0.00000000	      0.00000000	      0.00000000	      0.00000000	      0.00000000	      0.00000000
      0.08000000	      0.00000000	     -0.00000000	      0.00000000	      0.00000000	      0.00000000	      0.00000000	      0.00000000	      0.00000000	      0.00000000	      0.00000000	     33.73712158	   -552.66601562	   -318.76444790	  -1035.42898592	      0.00000000	      0.00000000	      0.00000000	   1942.09715651	      3.26724982	    -27.33321600	   -352.05712891	   -327.84656924	   -742.34590534	      0.00000000	      0.00000000	     -0.00000000	  -1943.66525984	      0.00000000	     -0.00000000	      0.00000000	      0.00000000	      0.00000000	      0.00000000	      0.00000000	      0.00000000	      0.00000000
      0.09000000	      0.00000000	     -0.00000000	      0.00000000	      0.00000000	      0.00000000	      0.00000000	      0.00000000	      0.00000000	      0.00000000	     -0.22471398	     33.79921341	   -549.60906982	   -318.35013457	  -1035.66944822	      0.00000000	      0.00000000	      0.00000000	   2097.45114062	      3.49009328	    -26.76387436	   -353.16210938	   -326.24155413	   -739.50758264	      0.00000000	      0.00000000	     -0.00000000	  -1914.54116252	      0.00000000	     -0.00000000	      0.00000000	      0.00000000	      0.00000000	      0.00000000	      0.00000000	      0.00000000	      0.00000000
      0.10000000	      0.00000000	     -0.00000000	      0.00000000	      0.00000000	      0.00000000	      0.00000000	      0.00000000	      0.00000000	      0.00000000	     -0.71779358	     34.26858902	   -546.95251465	   -318.18750601	  -1035.18196439	      0.00000000	      0.00000000	      0.00000000	   2096.47096329	      3.47188328	    -27.51962120	   -351.53543091	   -326.85782391	   -740.49078666	      0.00000000	      0.00000000	     -0.00000000	  -1994.61957555	      0.00000000	     -0.00000000	      0.00000000	      0.00000000	      0.00000000	      0.00000000	      0.00000000	      0.00000000	      0.00000000
      0.11000000	      0.00000000	     -0.00000000	      0.00000000	      0.00000000	      0.00000000	      0.00000000	      0.00000000	      0.00000000	      0.00000000	     -1.32732785	     33.82741165	   -546.12115479	   -318.19277980	  -1035.52656111	      0.00000000	      0.00000000	      0.00000000	   2009.83385465	      3.19358595	    -26.35059003	   -352.62789917	   -325.91261740	   -738.88064286	      0.00000000	      0.00000000	     -0.00000000	  -1950.28795506	      0.00000000	     -0.00000000	      0.00000000	      0.00000000	      0.00000000	      0.00000000	      0.00000000	      0.00000000	      0.00000000
